<?xml version="1.0" encoding="utf-8"?>
<!-- Generator: Adobe Illustrator 23.0.4, SVG Export Plug-In . SVG Version: 6.00 Build 0)  -->
<svg version="1.1" id="Layer_1" xmlns="http://www.w3.org/2000/svg" xmlns:xlink="http://www.w3.org/1999/xlink" x="0px" y="0px"
	 viewBox="0 0 212 130" style="enable-background:new 0 0 212 130;" xml:space="preserve">
<style type="text/css">
	.st0{fill:#DE2F41;}
</style>
<g>
	<g>
		<path d="M65.14,111.64c0.8,0.04,1.61-0.03,2.39-0.21c2.63-0.58,4.61-2.88,4.91-5.71V88.04c0-0.15-0.03-0.27-0.1-0.39
			c-0.22-0.47-0.63-0.79-1.15-0.88c-0.85-0.23-1.73-0.4-2.64-0.51c-0.14-0.03-0.32-0.04-0.46-0.04h-0.81V82.9h14.42v3.33H81.4
			c-0.17,0-0.32,0.01-0.47,0.04c-0.9,0.11-1.78,0.28-2.64,0.51c-0.48,0.09-0.93,0.41-1.17,0.88c-0.05,0.11-0.08,0.24-0.08,0.39
			v17.67c0,1-0.19,1.99-0.54,2.93c-1.04,2.9-3.22,5.2-5.98,6.32c-1.9,0.73-3.93,1.06-5.95,0.99c-2,0.07-4.03-0.25-5.93-0.99
			c-2.49-0.71-4.57-2.5-5.73-4.93c-0.54-1.13-0.84-2.38-0.84-3.65V88.04c0-0.15-0.02-0.27-0.09-0.39c-0.21-0.47-0.63-0.79-1.12-0.88
			c-0.96-0.25-1.93-0.43-2.88-0.55V82.9h14.74v3.33c-0.97,0.12-1.94,0.3-2.88,0.55c-0.49,0.09-0.9,0.41-1.14,0.88
			c-0.05,0.11-0.1,0.24-0.1,0.39v17.76c0.02,2.6,1.68,4.86,4.07,5.52C63.48,111.53,64.31,111.64,65.14,111.64"/>
		<path d="M19.37,115.24v-3.72h0.07c0.88-0.02,1.71-0.05,2.59-0.09c0.53-0.01,1.1-0.1,1.63-0.25c0.39-0.18,0.68-0.58,0.74-1.04
			v-23.5h-1.69c-0.56,0-1.12,0.05-1.69,0.14c-0.92,0.14-1.76,0.64-2.37,1.38c-1.12,1.43-1.95,3.1-2.42,4.9h-3.12V82.9h28.96v10.15
			h-3.12c-0.44-1.8-1.27-3.47-2.41-4.9c-0.61-0.74-1.45-1.24-2.37-1.38c-0.54-0.09-1.13-0.14-1.68-0.14h-1.67v23.5
			c0.03,0.46,0.32,0.86,0.74,1.04c0.51,0.15,1.07,0.24,1.63,0.25c0.86,0.04,1.71,0.07,2.56,0.09h0.07v3.72H19.37z"/>
		<path d="M99.28,86.5c-0.21,0.32-0.31,0.7-0.28,1.09l-0.08,22.78c-0.03,0.39,0.08,0.77,0.28,1.1c0.21,0.11,0.42,0.2,0.65,0.24
			c0.34,0.06,0.67,0.12,1.01,0.16c0.88,0.05,1.75,0.07,2.65,0.07c3.51,0.32,6.88-1.33,8.79-4.32c2.67-5.13,2.62-11.28-0.19-16.37
			c-1.87-2.96-5.05-4.84-8.53-5.11c-0.88-0.03-1.75-0.03-2.65,0.01c-0.33,0.03-0.67,0.08-1.01,0.14
			C99.69,86.31,99.49,86.39,99.28,86.5 M103.33,82.9c3.21,0.11,6.39,0.82,9.35,2.12c7.6,3.7,10.9,12.78,7.42,20.49
			c-3.04,5.62-8.73,9.29-15.1,9.74H87.94v-3.21c0.88-0.03,1.75-0.08,2.63-0.17c0.36-0.05,0.69-0.1,1.02-0.16
			c0.24-0.04,0.45-0.13,0.63-0.24c0.23-0.32,0.31-0.71,0.28-1.1V88.09c0-0.12,0-0.24-0.03-0.37c-0.05-0.53-0.42-1.01-0.88-1.25
			c-0.33-0.16-0.66-0.27-1.02-0.35c-0.88-0.16-1.75-0.28-2.63-0.37V82.9H103.33z"/>
		<path d="M151.28,108.65c1.62-2.93,2.36-6.24,2.21-9.59c0.15-3.33-0.59-6.65-2.21-9.57c-1.57-2.54-4.38-4.05-7.37-4
			c-2.99-0.06-5.79,1.46-7.38,4c-1.62,2.93-2.36,6.25-2.21,9.57c-0.14,3.34,0.6,6.66,2.21,9.59c1.58,2.54,4.39,4.05,7.38,3.98
			C146.9,112.7,149.71,111.19,151.28,108.65 M143.91,81.69c9.61,0,17.42,7.78,17.42,17.37c0,9.6-7.81,17.38-17.42,17.38
			c-9.63,0-17.45-7.78-17.45-17.38C126.46,89.47,134.27,81.69,143.91,81.69"/>
		<path d="M181.03,101.19h-5.42v8.98c0,0.33,0.15,0.65,0.41,0.86c0.08,0.05,0.13,0.09,0.21,0.12c0.36,0.13,0.74,0.21,1.11,0.24
			c0.87,0.12,1.73,0.22,2.6,0.31v3.53h-14.92v-3.57c0.88-0.1,1.74-0.18,2.61-0.27c0.38-0.04,0.74-0.11,1.1-0.24
			c0.08-0.03,0.16-0.07,0.21-0.12c0.29-0.21,0.44-0.52,0.42-0.86l0.02-22.22c0.02-0.33-0.1-0.67-0.33-0.89
			c-0.08-0.06-0.13-0.1-0.21-0.14c-0.37-0.16-0.7-0.27-1.08-0.34c-0.9-0.18-1.83-0.35-2.74-0.55V82.9h23.11
			c1.6,0,3.18,0.47,4.49,1.36c2.42,1.62,3.97,4.25,4.14,7.15c0.34,5.16-3.55,9.61-8.68,9.96l6.37,8.62
			c0.49,0.69,1.26,1.15,2.14,1.27c1.16,0.16,2.37,0.3,3.58,0.42v3.57h-9.28L181.03,101.19z M187.38,96.99
			c2.01-0.5,3.54-2.17,3.84-4.21c0.44-2.88-1.52-5.56-4.41-6.01c-0.1-0.02-0.21-0.04-0.31-0.04c-1.5-0.24-2.97-0.35-4.48-0.36h-6.41
			v11.07h8.25C185.06,97.41,186.24,97.27,187.38,96.99"/>
	</g>
	<path class="st0" d="M121.31,37.93H91.97c0.33,10.19,5.87,19.5,14.68,24.64C115.47,57.43,121,48.12,121.31,37.93 M126.62,37.93
		c-0.36,13.17-8.09,25.02-19.97,30.69c-11.91-5.66-19.64-17.52-20-30.69V12.89c4.57,5.73,12.89,6.71,18.63,2.16
		c0.5-0.39,0.93-0.8,1.37-1.25c5.05,5.3,13.43,5.5,18.73,0.47c0.45-0.43,0.85-0.9,1.24-1.38V37.93z M103.51,32.12V22.06
		c-3.76,1.39-7.86,1.53-11.7,0.4v9.66H103.51z M121.47,32.12v-9.66c-3.84,1.13-7.94,0.99-11.67-0.4v10.06H121.47z"/>
</g>
</svg>
