<?xml version="1.0" encoding="utf-8"?>
<!-- Generator: Adobe Illustrator 21.0.0, SVG Export Plug-In . SVG Version: 6.00 Build 0)  -->
<svg version="1.1" id="Livello_1" xmlns="http://www.w3.org/2000/svg" xmlns:xlink="http://www.w3.org/1999/xlink" x="0px" y="0px"
	 viewBox="0 0 820.6 141.5" style="enable-background:new 0 0 820.6 141.5;" xml:space="preserve">
<style type="text/css">
	.st0{fill:#070606;}
</style>
<g>
	<g>
		<path class="st0" d="M27,31.1h56c12.8,0,22.5,2.2,29.2,6.6c6.7,4.4,10,10.6,10,18.6s-3.3,14.2-10,18.6c-6.7,4.5-16.4,6.6-29.1,6.6
			h-39v34.9H27V31.1z M44.1,71.8h33.2c9.6,0.1,16.7-1.2,21.2-3.9c4.5-2.7,6.7-6.6,6.7-11.6c0-5.1-2.2-8.9-6.7-11.6
			c-4.5-2.6-11.5-4-21.2-4H44.1V71.8z"/>
		<path class="st0" d="M173.4,31.1h18.8l49.9,85.3h-18.8l-14-25.7h-54L141,116.4h-17.5L173.4,31.1z M160.7,81H204l-21.3-39.6h-0.4
			L160.7,81z"/>
		<path class="st0" d="M263.4,31.1h18.1l67.4,69.1h0.3V31.1h16v85.3h-18.6L279.7,48h-0.3v68.4h-16V31.1z"/>
		<path class="st0" d="M401.9,31.1h88.3v9.7h-71.2v27h66.4v9.7h-66.4v29.3h71.7v9.7h-88.8V31.1z"/>
		<path class="st0" d="M520.2,31.1h60.2c12.1,0,21.5,2,28.5,6c6.9,4,10.4,9.4,10.4,16.3c0,5.2-1.8,9.7-5.3,13.6
			c-3.5,3.9-9.2,6.6-16.9,8v0.2c3.7,0.5,6.7,1.3,9,2.4c2.3,1.1,4.2,2.5,5.6,4c1.4,1.6,2.4,3.3,3,5.2c0.6,1.9,1.1,3.9,1.4,6
			c0.2,2.1,0.4,4.2,0.6,6.4c0.2,2.2,0.5,4.3,0.9,6.3c0.4,2,1.1,4,2,5.9c0.9,1.9,2.2,3.5,4,5h-19c-1.2-0.9-2-2.1-2.4-3.6
			c-0.4-1.5-0.7-3.2-0.8-5.1c-0.1-1.9-0.2-3.9-0.4-6c-0.1-2.1-0.5-4.3-1.1-6.3c-0.5-2.1-1.1-4-1.8-5.9c-0.7-1.9-1.9-3.5-3.4-4.9
			c-1.6-1.4-3.6-2.5-6.2-3.3c-2.6-0.8-5.9-1.3-9.9-1.3h-41.5v36.4h-17.1V31.1z M572.7,70.3c3.9,0,7.7-0.2,11.3-0.6
			c3.6-0.4,6.7-1.2,9.4-2.3c2.7-1.1,4.8-2.7,6.4-4.6c1.6-1.9,2.4-4.4,2.4-7.5c0-4.2-1.8-7.6-5.4-10.4c-3.6-2.7-9.4-4.1-17.3-4.1
			h-42.2v29.5H572.7z"/>
		<path class="st0" d="M686.5,31.1h18.8l49.9,85.3h-18.8l-14-25.7h-54l-14.3,25.7h-17.5L686.5,31.1z M673.8,81h43.3l-21.3-39.6h-0.4
			L673.8,81z"/>
		<path class="st0" d="M777.5,31.1h17.1v85.3h-17.1V31.1z"/>
	</g>
</g>
</svg>
