<svg width="135" height="40" viewBox="0 0 135 40" fill="none" xmlns="http://www.w3.org/2000/svg">
<rect x="0.125" y="0.125" width="134.75" height="39.75" rx="6.875" stroke="white" stroke-width="0.25"/>
<path d="M91.7165 19.2013V21.4924H90.101V22.9948H91.7165V28.0998C91.7165 29.8429 92.6037 30.5402 94.8355 30.5402C95.2277 30.5402 95.6013 30.4987 95.9281 30.4489V28.9631C95.648 28.988 95.4705 29.0046 95.1624 29.0046C94.1632 29.0046 93.7243 28.5895 93.7243 27.6432V22.9948H95.9281V21.4924H93.7243V19.2013H91.7165Z" fill="white"/>
<path d="M101.614 30.6647C104.583 30.6647 106.404 28.8967 106.404 25.9665C106.404 23.0529 104.574 21.2765 101.614 21.2765C98.6441 21.2765 96.8138 23.0529 96.8138 25.9665C96.8138 28.8967 98.6348 30.6647 101.614 30.6647ZM101.614 29.0793C99.8674 29.0793 98.8869 27.9421 98.8869 25.9665C98.8869 24.0075 99.8674 22.862 101.614 22.862C103.351 22.862 104.341 24.0075 104.341 25.9665C104.341 27.9338 103.351 29.0793 101.614 29.0793Z" fill="white"/>
<path d="M107.962 30.4904H109.97V25.153C109.97 23.883 111.044 23.028 112.566 23.028C112.921 23.028 113.519 23.0861 113.687 23.1359V21.3762C113.472 21.3263 113.089 21.3014 112.79 21.3014C111.464 21.3014 110.334 21.9489 110.045 22.8371H109.895V21.4509H107.962V30.4904Z" fill="white"/>
<path d="M118.672 22.7956C120.157 22.7956 121.128 23.717 121.175 25.1364H116.039C116.151 23.7253 117.187 22.7956 118.672 22.7956ZM121.165 28.05C120.792 28.7555 119.961 29.1457 118.747 29.1457C117.14 29.1457 116.104 28.1413 116.039 26.5558V26.4562H123.22V25.8337C123.22 22.9948 121.511 21.2765 118.681 21.2765C115.814 21.2765 113.993 23.111 113.993 25.9997C113.993 28.8884 115.777 30.6647 118.691 30.6647C121.016 30.6647 122.641 29.6686 123.098 28.05H121.165Z" fill="white"/>
<path d="M78.55 27.1522C78.7048 29.372 80.7858 30.7915 83.8831 30.7915C87.1933 30.7915 89.2646 29.3031 89.2646 26.9286C89.2646 25.0616 88.0838 24.0292 85.2188 23.4355L83.6798 23.1C81.8602 22.7214 81.1246 22.2138 81.1246 21.3277C81.1246 20.2092 82.2667 19.4779 83.9799 19.4779C85.6059 19.4779 86.7287 20.192 86.932 21.3363H89.042C88.9161 19.2456 86.8449 17.7744 84.0089 17.7744C80.96 17.7744 78.9275 19.2456 78.9275 21.4567C78.9275 23.2807 80.0793 24.3647 82.6055 24.8895L84.4058 25.2767C86.2544 25.6638 87.0675 26.2317 87.0675 27.1781C87.0675 28.2793 85.7898 29.0794 84.0476 29.0794C82.1796 29.0794 80.8826 28.3309 80.6987 27.1522H78.55Z" fill="white"/>
<path d="M57.7517 21.3014C56.3697 21.3014 55.1743 21.9157 54.558 22.945H54.4086V21.4509H52.4755V33.4953H54.4833V29.1208H54.6421C55.1743 30.0754 56.323 30.6398 57.7704 30.6398C60.3385 30.6398 61.9727 28.8386 61.9727 25.9665C61.9727 23.0944 60.3385 21.3014 57.7517 21.3014ZM57.1821 29.0378C55.5012 29.0378 54.4459 27.8591 54.4459 25.9748C54.4459 24.0822 55.5012 22.9035 57.1914 22.9035C58.891 22.9035 59.9089 24.0573 59.9089 25.9665C59.9089 27.884 58.891 29.0378 57.1821 29.0378Z" fill="white"/>
<path d="M68.9981 21.3014C67.616 21.3014 66.4207 21.9157 65.8044 22.945H65.655V21.4509H63.7219V33.4953H65.7297V29.1208H65.8884C66.4207 30.0754 67.5694 30.6398 69.0168 30.6398C71.5849 30.6398 73.2191 28.8386 73.2191 25.9665C73.2191 23.0944 71.5849 21.3014 68.9981 21.3014ZM68.4285 29.0378C66.7476 29.0378 65.6923 27.8591 65.6923 25.9748C65.6923 24.0822 66.7476 22.9035 68.4378 22.9035C70.1374 22.9035 71.1553 24.0573 71.1553 25.9665C71.1553 27.884 70.1374 29.0378 68.4285 29.0378Z" fill="white"/>
<path d="M48.8733 30.4904H51.1769L46.1342 18.0755H43.8015L38.7588 30.4904H40.9849L42.2723 27.1953H47.5957L48.8733 30.4904ZM44.8565 20.3297H45.0211L47.044 25.5778H42.824L44.8565 20.3297Z" fill="white"/>
<path d="M40.1074 8.71069V14.6997H42.5401C44.5478 14.6997 45.7104 13.5999 45.7104 11.6865C45.7104 9.80225 44.5385 8.71069 42.5401 8.71069H40.1074ZM41.1533 9.55737H42.4233C43.8194 9.55737 44.6459 10.3459 44.6459 11.699C44.6459 13.0728 43.8334 13.853 42.4233 13.853H41.1533V9.55737Z" fill="white"/>
<path d="M49.2712 14.7869C50.756 14.7869 51.6665 13.9028 51.6665 12.4377C51.6665 10.981 50.7513 10.0928 49.2712 10.0928C47.7864 10.0928 46.8712 10.981 46.8712 12.4377C46.8712 13.9028 47.7817 14.7869 49.2712 14.7869ZM49.2712 13.9941C48.398 13.9941 47.9078 13.4255 47.9078 12.4377C47.9078 11.4583 48.398 10.8855 49.2712 10.8855C50.1396 10.8855 50.6346 11.4583 50.6346 12.4377C50.6346 13.4214 50.1396 13.9941 49.2712 13.9941Z" fill="white"/>
<path d="M59.4201 10.1799H58.4162L57.5104 13.6289H57.431L56.3851 10.1799H55.4233L54.3774 13.6289H54.3027L53.3922 10.1799H52.3743L53.7751 14.6997H54.807L55.8529 11.3711H55.9322L56.9828 14.6997H58.024L59.4201 10.1799Z" fill="white"/>
<path d="M60.5762 14.6997H61.5801V12.0559C61.5801 11.3503 62.0517 10.9104 62.7941 10.9104C63.5365 10.9104 63.8913 11.2715 63.8913 11.9978V14.6997H64.8952V11.7737C64.8952 10.6987 64.2695 10.0928 63.1349 10.0928C62.3692 10.0928 61.8649 10.3958 61.6174 10.8979H61.5427V10.1799H60.5762V14.6997Z" fill="white"/>
<path d="M66.4762 14.6997H67.4801V8.41602H66.4762V14.6997Z" fill="white"/>
<path d="M71.2556 14.7869C72.7404 14.7869 73.6509 13.9028 73.6509 12.4377C73.6509 10.981 72.7357 10.0928 71.2556 10.0928C69.7708 10.0928 68.8556 10.981 68.8556 12.4377C68.8556 13.9028 69.7661 14.7869 71.2556 14.7869ZM71.2556 13.9941C70.3824 13.9941 69.8922 13.4255 69.8922 12.4377C69.8922 11.4583 70.3824 10.8855 71.2556 10.8855C72.1241 10.8855 72.619 11.4583 72.619 12.4377C72.619 13.4214 72.1241 13.9941 71.2556 13.9941Z" fill="white"/>
<path d="M76.642 14.0232C76.0957 14.0232 75.6988 13.7866 75.6988 13.3799C75.6988 12.9814 76.0163 12.7698 76.7167 12.7283L77.9587 12.6577V13.0354C77.9587 13.5957 77.3984 14.0232 76.642 14.0232ZM76.3852 14.7744C77.0528 14.7744 77.6085 14.5171 77.912 14.0647H77.9914V14.6997H78.9579V11.6118C78.9579 10.6572 78.2388 10.0928 76.9641 10.0928C75.8108 10.0928 74.9891 10.5908 74.8863 11.3669H75.8575C75.9696 11.0474 76.3571 10.8647 76.9174 10.8647C77.6038 10.8647 77.9587 11.1345 77.9587 11.6118V12.002L76.5813 12.0725C75.3719 12.1389 74.6902 12.6079 74.6902 13.4214C74.6902 14.2473 75.4046 14.7744 76.3852 14.7744Z" fill="white"/>
<path d="M82.3645 14.7744C83.0649 14.7744 83.6579 14.4797 83.9614 13.9858H84.0408V14.6997H85.0026V8.41602H83.9987V10.8979H83.924C83.6485 10.3999 83.0602 10.1052 82.3645 10.1052C81.0805 10.1052 80.254 11.01 80.254 12.4377C80.254 13.8696 81.0712 14.7744 82.3645 14.7744ZM82.6493 10.9062C83.4898 10.9062 84.0174 11.4998 84.0174 12.4419C84.0174 13.3882 83.4945 13.9734 82.6493 13.9734C81.7995 13.9734 81.2906 13.3965 81.2906 12.4377C81.2906 11.4873 81.8042 10.9062 82.6493 10.9062Z" fill="white"/>
<path d="M91.5124 14.7869C92.9972 14.7869 93.9077 13.9028 93.9077 12.4377C93.9077 10.981 92.9925 10.0928 91.5124 10.0928C90.0276 10.0928 89.1124 10.981 89.1124 12.4377C89.1124 13.9028 90.0229 14.7869 91.5124 14.7869ZM91.5124 13.9941C90.6393 13.9941 90.149 13.4255 90.149 12.4377C90.149 11.4583 90.6393 10.8855 91.5124 10.8855C92.3809 10.8855 92.8758 11.4583 92.8758 12.4377C92.8758 13.4214 92.3809 13.9941 91.5124 13.9941Z" fill="white"/>
<path d="M95.2365 14.6997H96.2404V12.0559C96.2404 11.3503 96.712 10.9104 97.4544 10.9104C98.1968 10.9104 98.5517 11.2715 98.5517 11.9978V14.6997H99.5555V11.7737C99.5555 10.6987 98.9299 10.0928 97.7953 10.0928C97.0295 10.0928 96.5252 10.3958 96.2778 10.8979H96.2031V10.1799H95.2365V14.6997Z" fill="white"/>
<path d="M104.179 9.05518V10.2007H103.371V10.9519H104.179V13.5044C104.179 14.376 104.623 14.7246 105.738 14.7246C105.935 14.7246 106.121 14.7039 106.285 14.679V13.936C106.145 13.9485 106.056 13.9568 105.902 13.9568C105.402 13.9568 105.183 13.7493 105.183 13.2761V10.9519H106.285V10.2007H105.183V9.05518H104.179Z" fill="white"/>
<path d="M107.632 14.6997H108.636V12.0601C108.636 11.3752 109.094 10.9146 109.916 10.9146C110.625 10.9146 111.003 11.2798 111.003 12.002V14.6997H112.007V11.782C112.007 10.707 111.34 10.0969 110.256 10.0969C109.491 10.0969 108.954 10.3999 108.706 10.9062H108.627V8.41602H107.632V14.6997Z" fill="white"/>
<path d="M115.629 10.8523C116.371 10.8523 116.857 11.313 116.88 12.0227H114.312C114.368 11.3171 114.886 10.8523 115.629 10.8523ZM116.875 13.4795C116.689 13.8323 116.273 14.0273 115.666 14.0273C114.863 14.0273 114.345 13.5251 114.312 12.7324V12.6826H117.903V12.3713C117.903 10.9519 117.048 10.0928 115.633 10.0928C114.2 10.0928 113.289 11.01 113.289 12.4543C113.289 13.8987 114.181 14.7869 115.638 14.7869C116.801 14.7869 117.613 14.2888 117.842 13.4795H116.875Z" fill="white"/>
<path d="M27.8652 20.3011C27.8896 18.6201 28.9052 17.0295 30.5164 16.149C29.5 14.8587 27.7975 14.0406 26.0263 13.9913C24.1372 13.8151 22.3057 14.9962 21.3431 14.9962C20.3617 14.9962 18.8796 14.0088 17.2835 14.038C15.2031 14.0978 13.2636 15.1491 12.2515 16.7659C10.0757 20.1143 11.6986 25.0354 13.7828 27.742C14.8256 29.0673 16.0443 30.5478 17.6389 30.4953C19.1993 30.4377 19.7821 29.6108 21.6657 29.6108C23.5318 29.6108 24.0786 30.4953 25.7056 30.4619C27.38 30.4377 28.435 29.1306 29.4412 27.7927C30.1904 26.8484 30.7669 25.8047 31.1494 24.7002C29.1816 23.9604 27.8675 22.2002 27.8652 20.3011Z" fill="white"/>
<path d="M24.7921 12.2113C25.7051 11.2371 26.1549 9.98494 26.046 8.7207C24.6511 8.85092 23.3627 9.44348 22.4374 10.3803C21.5326 11.2956 21.0617 12.5258 21.1508 13.7417C22.5461 13.7545 23.9178 13.178 24.7921 12.2113Z" fill="white"/>
</svg>
