<?xml version="1.0" encoding="utf-8"?>
<!-- Generator: Adobe Illustrator 23.0.4, SVG Export Plug-In . SVG Version: 6.00 Build 0)  -->
<svg version="1.1" id="ELEMENTS" xmlns="http://www.w3.org/2000/svg" xmlns:xlink="http://www.w3.org/1999/xlink" x="0px" y="0px"
	 viewBox="0 0 296.61 69.35" style="enable-background:new 0 0 296.61 69.35;" xml:space="preserve">
<style type="text/css">
	.st0{fill:#1E274A;}
	.st1{fill:none;}
</style>
<g>
	<g>
		<path class="st0" d="M185.95,58.18h2.11v0.91h-3.14v-4.33h1.04V58.18z"/>
		<path class="st0" d="M190.15,54.76h3.37v0.91h-2.34v0.74h2.2v0.91h-2.2v0.85h2.34v0.91h-3.37V54.76z"/>
		<path class="st0" d="M200.03,58.18h2.11v0.91H199v-4.33h1.04V58.18z"/>
		<path class="st0" d="M206.24,59.17c-1.35,0-2.28-0.87-2.28-2.26c0-1.4,0.93-2.22,2.28-2.22s2.28,0.83,2.28,2.22
			C208.53,58.3,207.59,59.17,206.24,59.17z M206.24,55.56c-0.64,0-1.18,0.42-1.18,1.35c0,0.93,0.54,1.38,1.18,1.38
			c0.65,0,1.19-0.46,1.19-1.38C207.43,55.99,206.89,55.56,206.24,55.56z"/>
		<path class="st0" d="M214.84,57.59c-0.16,0.96-0.99,1.58-2.09,1.58c-1.37,0-2.2-0.84-2.2-2.24c0-1.39,0.86-2.24,2.23-2.24
			c1.1,0,1.88,0.65,2.03,1.58l-1.02,0.15c-0.11-0.6-0.55-0.86-1.05-0.86c-0.61,0-1.1,0.46-1.1,1.36c0,0.93,0.48,1.37,1.1,1.37
			c0.44,0,0.96-0.2,1.08-0.86L214.84,57.59z"/>
		<path class="st0" d="M218.12,58.18h2.11v0.91h-3.14v-4.33h1.04V58.18z"/>
		<path class="st0" d="M222.31,54.76h3.37v0.91h-2.34v0.74h2.2v0.91h-2.2v0.85h2.34v0.91h-3.37V54.76z"/>
		<path class="st0" d="M230.89,57.32v-0.91h2.7v0.91H230.89z"/>
		<path class="st0" d="M240.55,54.69c0.87,0,1.66,0.39,1.85,1.24l-1.03,0.15c-0.1-0.31-0.42-0.5-0.88-0.5
			c-0.39,0-0.67,0.12-0.67,0.35c0,0.22,0.2,0.36,0.5,0.43l0.6,0.13c0.68,0.14,1.58,0.37,1.58,1.27c0,0.96-0.96,1.42-1.81,1.42
			c-1.15,0-1.86-0.52-2.05-1.4l1.03-0.15c0.12,0.44,0.48,0.67,1.03,0.67c0.36,0,0.73-0.1,0.73-0.41c0-0.28-0.37-0.41-0.8-0.5
			l-0.53-0.12c-0.68-0.15-1.34-0.47-1.34-1.27C238.75,55.07,239.74,54.69,240.55,54.69z"/>
		<path class="st0" d="M245.74,54.76v2.52c0,0.64,0.15,1,0.87,1c0.72,0,0.85-0.41,0.85-1.06v-2.45h1.04v2.41c0,1.36-0.52,2-1.89,2
			c-1.32,0-1.91-0.51-1.91-1.96v-2.45H245.74z"/>
		<path class="st0" d="M252.02,59.09h-1.04v-4.33h1.04V59.09z"/>
		<path class="st0" d="M256.16,54.69c0.87,0,1.66,0.39,1.85,1.24l-1.03,0.15c-0.1-0.31-0.42-0.5-0.88-0.5
			c-0.39,0-0.67,0.12-0.67,0.35c0,0.22,0.2,0.36,0.5,0.43l0.6,0.13c0.68,0.14,1.58,0.37,1.58,1.27c0,0.96-0.96,1.42-1.81,1.42
			c-1.15,0-1.86-0.52-2.05-1.4l1.03-0.15c0.12,0.44,0.48,0.67,1.03,0.67c0.36,0,0.73-0.1,0.73-0.41c0-0.28-0.37-0.41-0.8-0.5
			l-0.53-0.12c-0.68-0.15-1.34-0.47-1.34-1.27C254.36,55.07,255.35,54.69,256.16,54.69z"/>
		<path class="st0" d="M262.03,54.69c0.87,0,1.66,0.39,1.85,1.24l-1.03,0.15c-0.1-0.31-0.42-0.5-0.88-0.5
			c-0.39,0-0.67,0.12-0.67,0.35c0,0.22,0.2,0.36,0.5,0.43l0.6,0.13c0.68,0.14,1.58,0.37,1.58,1.27c0,0.96-0.96,1.42-1.81,1.42
			c-1.15,0-1.86-0.52-2.05-1.4l1.03-0.15c0.12,0.44,0.48,0.67,1.03,0.67c0.36,0,0.73-0.1,0.73-0.41c0-0.28-0.37-0.41-0.8-0.5
			l-0.53-0.12c-0.68-0.15-1.34-0.47-1.34-1.27C260.23,55.07,261.21,54.69,262.03,54.69z"/>
		<path class="st0" d="M266.25,54.76h3.37v0.91h-2.34v0.74h2.2v0.91h-2.2v0.85h2.34v0.91h-3.37V54.76z"/>
	</g>
	<g>
		<path class="st0" d="M58.67,54.69c0.87,0,1.66,0.39,1.85,1.24l-1.03,0.15c-0.1-0.31-0.42-0.5-0.88-0.5
			c-0.39,0-0.67,0.12-0.67,0.35c0,0.22,0.2,0.36,0.5,0.43l0.6,0.13c0.68,0.14,1.58,0.37,1.58,1.27c0,0.96-0.96,1.42-1.81,1.42
			c-1.15,0-1.86-0.52-2.05-1.4l1.03-0.15c0.12,0.44,0.48,0.67,1.03,0.67c0.36,0,0.73-0.1,0.73-0.41c0-0.28-0.37-0.41-0.8-0.5
			l-0.53-0.12c-0.68-0.15-1.34-0.47-1.34-1.27C56.87,55.07,57.85,54.69,58.67,54.69z"/>
		<path class="st0" d="M64.46,59.09h-1.04v-4.33h1.04V59.09z"/>
		<path class="st0" d="M70.23,59.09l-1.69-2.97v2.97H67.5v-4.33h1.3l1.69,2.97v-2.97h1.04v4.33H70.23z"/>
		<path class="st0" d="M78.63,57.59c-0.16,0.96-0.99,1.58-2.09,1.58c-1.37,0-2.2-0.84-2.2-2.24c0-1.39,0.86-2.24,2.23-2.24
			c1.1,0,1.88,0.65,2.03,1.58l-1.02,0.15c-0.11-0.6-0.55-0.86-1.05-0.86c-0.61,0-1.1,0.46-1.1,1.36c0,0.93,0.48,1.37,1.1,1.37
			c0.44,0,0.96-0.2,1.08-0.86L78.63,57.59z"/>
		<path class="st0" d="M81.38,54.76h3.37v0.91h-2.34v0.74h2.2v0.91h-2.2v0.85h2.34v0.91h-3.37V54.76z"/>
		<path class="st0" d="M91.94,59.09v-2.82h-0.99v-0.84c0.74-0.02,1.05-0.21,1.24-0.67h0.79v4.33H91.94z"/>
		<path class="st0" d="M99.25,55.86c0,0.36-0.18,0.7-0.46,0.91c0.42,0.25,0.59,0.6,0.59,1.03c0,0.85-0.78,1.36-1.78,1.36
			c-1.01,0-1.79-0.51-1.79-1.36c0-0.44,0.15-0.78,0.59-1.03c-0.29-0.22-0.46-0.55-0.46-0.91c0-0.66,0.65-1.17,1.66-1.17
			C98.61,54.69,99.25,55.2,99.25,55.86z M96.88,57.75c0,0.33,0.28,0.55,0.72,0.55c0.44,0,0.72-0.22,0.72-0.55
			c0-0.31-0.28-0.54-0.72-0.54C97.16,57.21,96.88,57.44,96.88,57.75z M97.6,55.56c-0.37,0-0.63,0.18-0.63,0.44
			c0,0.26,0.25,0.44,0.63,0.44s0.63-0.18,0.63-0.44C98.23,55.74,97.97,55.56,97.6,55.56z"/>
		<path class="st0" d="M105.74,58.23h-0.62v0.86h-1.04v-0.86h-2.13v-0.88l2.21-2.59h0.95v2.56h0.62V58.23z M103.07,57.32h1.01V56.1
			L103.07,57.32z"/>
		<path class="st0" d="M109.37,56.46c0.22-0.23,0.53-0.33,0.96-0.33c0.78,0,1.49,0.5,1.49,1.51c0,0.98-0.73,1.54-1.74,1.54
			c-1.25,0-1.79-0.87-1.79-2.15c0-1.33,0.56-2.33,1.9-2.33c1.02,0,1.52,0.55,1.57,1.26l-1.01,0.01c-0.04-0.28-0.31-0.39-0.61-0.39
			C109.69,55.56,109.36,55.86,109.37,56.46z M110.08,58.3c0.4,0,0.68-0.24,0.68-0.65c0-0.4-0.27-0.64-0.68-0.64
			c-0.42,0-0.7,0.23-0.7,0.64C109.38,58.05,109.66,58.3,110.08,58.3z"/>
	</g>
	<g>
		<path class="st0" d="M131.09,31.85c0.87,0.03,1.58,0.17,2.33,0.83l0-5.45h-18.55c0.91,1.03,0.84,1.98,0.84,3.4h0v12.48h0
			c0,1.42,0.07,2.37-0.84,3.4h18.55l0-5.45c-0.75,0.67-1.47,0.81-2.35,0.83H120.6v-2.77h9.81v-4.5h-9.81v-2.77H131.09z"/>
		<path class="st0" d="M96.74,32.96c0-0.81,0.69-1.47,4.28-1.47c2.55,0,4.45,0.43,5.76,0.9c0.71,0.3,1.14,0.58,1.59,1.23l2.28-5.02
			c-0.83,0.17-1.37,0.04-2.02-0.19c-1.81-0.7-4.61-1.41-8.5-1.41c-7.64,0-8.35,4.88-8.35,6.04c0,4.26,3.99,5.31,8.41,5.76
			c4.5,0.46,6.3,0.18,6.12,1.73c-0.11,0.89-1.8,1.61-5.19,1.61c-2.18,0-4.38-0.71-5.91-1.35l0-0.01c-0.69-0.35-1.11-0.67-1.5-1.36
			l-2.79,5.01c0.73-0.08,1.22,0.02,1.74,0.23c2.26,1.03,5.77,2.09,9.1,2.09c6.54,0,9.47-3.24,9.47-6.31c0-4.4-4.02-5.21-8.11-5.69
			C100.49,34.44,96.74,34.49,96.74,32.96"/>
		<path class="st0" d="M73.59,32.96c0-0.81,0.69-1.47,4.28-1.47c2.55,0,4.45,0.43,5.76,0.9c0.71,0.3,1.15,0.58,1.59,1.23l2.28-5.02
			c-0.83,0.17-1.37,0.04-2.02-0.19c-1.81-0.7-4.61-1.41-8.5-1.41c-7.64,0-8.35,4.88-8.35,6.04c0,4.26,3.99,5.31,8.41,5.76
			c4.5,0.46,6.31,0.18,6.12,1.73c-0.11,0.89-1.8,1.61-5.19,1.61c-2.18,0-4.38-0.71-5.91-1.35l0-0.01c-0.69-0.35-1.11-0.67-1.5-1.36
			l-2.79,5.01c0.73-0.08,1.22,0.02,1.74,0.23c2.26,1.03,5.78,2.09,9.1,2.09c6.54,0,9.47-3.24,9.47-6.31c0-4.4-4.01-5.21-8.11-5.69
			C77.34,34.44,73.59,34.49,73.59,32.96"/>
		<path class="st0" d="M59.05,38.97l8.59-11.73h-7.28c0.54,0.49,0.54,1.08,0.05,1.67l0,0l-3.81,5.08l-3.98-5.33
			c-0.31-0.51-0.25-1.01,0.22-1.43h-7.27l8.59,11.73v5.13c-0.02,0.91-0.15,1.64-0.84,2.41h6.57c-0.67-0.75-0.81-1.47-0.83-2.35
			V38.97z"/>
		<path class="st0" d="M37.71,29.64c0.02-0.91,0.15-1.64,0.84-2.41h-6.57c0.68,0.76,0.81,1.48,0.84,2.38v14.47
			c-0.02,0.92-0.15,1.65-0.84,2.42h16.95v-5.75c-0.76,0.68-1.48,0.81-2.37,0.84h-8.85V29.64z"/>
		<path class="st0" d="M27.75,29.57c0.03-0.87,0.17-1.58,0.83-2.33h-6.57c0.75,0.84,0.83,1.64,0.84,2.67v8.42
			c0.01,0.56-0.12,1.37-0.83,2.09c-0.89,0.91-2.47,1.41-4.45,1.41c-1.98,0-3.56-0.5-4.45-1.41c-0.7-0.72-0.84-1.53-0.83-2.14v-8.67
			c0.03-0.9,0.16-1.61,0.84-2.38H6.57c0.69,0.77,0.82,1.5,0.84,2.42v8.57c-0.04,2.11,0.75,4.11,2.23,5.62
			c1.29,1.31,3.71,2.88,7.95,2.88c4.23,0,6.66-1.57,7.94-2.88c1.48-1.51,2.27-3.5,2.23-5.57V29.57z"/>
	</g>
	<g>
		<path class="st0" d="M289.19,29.64c0.02-0.91,0.15-1.64,0.84-2.41h-6.58c0.91,1.03,0.84,1.98,0.84,3.4h0v8.16l-10.06-11.55h-5.91
			c0.91,1.03,0.84,1.98,0.84,3.4h0v13.3c-0.01,0.99-0.11,1.76-0.84,2.58h6.58c-0.91-1.03-0.84-1.98-0.84-3.4h0v-8.55l10.42,11.95
			h4.7h0.84c-0.68-0.77-0.82-1.5-0.84-2.41V29.64z"/>
		<path class="st0" d="M264.16,43.76V29.97c0-1.07,0.08-1.88,0.84-2.74h-6.58c0.76,0.86,0.84,1.67,0.84,2.74v13.79
			c0,1.07-0.08,1.88-0.84,2.74H265C264.23,45.65,264.16,44.84,264.16,43.76"/>
		<path class="st0" d="M246.06,27.24h-10.91c0.91,1.03,0.84,1.98,0.84,3.4H236v12.48h0c0,1.42,0.07,2.37-0.84,3.4h10.87l0.03,0
			c5.23-0.12,9.48-4.45,9.48-9.63S251.29,27.36,246.06,27.24z M245.97,41.61h-5.07v-9.48h5.07c2.58,0.07,4.68,2.19,4.68,4.74
			C250.64,39.41,248.55,41.53,245.97,41.61z"/>
		<path class="st0" d="M227.94,41.08c2.24-1.26,3.84-3.76,3.84-6.5c0-3.91-3.27-7.34-6.99-7.34h-12.77
			c0.76,0.85,0.84,1.66,0.84,2.72v13.98c-0.01,0.99-0.12,1.76-0.84,2.57h6.56c-0.65-0.73-0.8-1.42-0.83-2.26v-2.32h4.31l4.22,4.58
			h6.66L227.94,41.08z M224.79,37.03l-7.03,0v-4.9h7.03c1.06,0,2.1,1.22,2.1,2.45C226.89,35.82,225.85,37.03,224.79,37.03z"/>
		<path class="st0" d="M200.81,27.24H194c0.46,0.56,0.64,1.55,0.06,2.75l-7.93,16.52l6.34,0c-0.47-0.43-0.43-0.96-0.21-1.47
			l0.65-1.36h10.36l0.65,1.35c0.22,0.52,0.26,1.05-0.2,1.48l6.34,0L200.81,27.24z M195.26,38.79l2.83-5.9l2.83,5.9H195.26z"/>
		<path class="st0" d="M183.26,44.09V29.64c0.02-0.91,0.15-1.64,0.84-2.41h-6.58c0.91,1.03,0.84,1.98,0.84,3.4h0v8.16l-10.06-11.55
			h-5.91c0.91,1.03,0.84,1.98,0.84,3.4h0v13.3c-0.01,0.99-0.12,1.76-0.84,2.58h6.58c-0.91-1.03-0.84-1.98-0.84-3.4h0v-8.55
			l10.42,11.95h5.54C183.41,45.73,183.28,45.01,183.26,44.09"/>
	</g>
	<path class="st0" d="M162.43,51.85l0.75,1.71c-2.42,0.94-8.12,2.31-12.25,2.8l-1.24-31.16l10.47-1.46l-10.59-1.52l-0.13-3.26
		c2.59-0.53,4.55-2.82,4.55-5.57c0-3.14-2.55-5.68-5.69-5.68c-3.14,0-5.69,2.55-5.69,5.68c0,2.75,1.95,5.04,4.55,5.57l-0.13,3.26
		l-10.59,1.52l10.47,1.46l-1.24,31.16c-4.13-0.49-9.83-1.86-12.25-2.8l0.75-1.71l-10.33-0.93l7.94,6.36l0.78-1.77l15.74,6.52
		l15.74-6.52l0.78,1.77l7.94-6.36L162.43,51.85z M145.14,13.4c0-1.75,1.41-3.16,3.16-3.16c1.75,0,3.16,1.41,3.16,3.16
		s-1.41,3.16-3.16,3.16C146.55,16.56,145.14,15.15,145.14,13.4z"/>
</g>
<g>
	<path class="st1" d="M310.9,29.64c0.02-0.91,0.15-1.64,0.84-2.41h-6.58c0.91,1.03,0.84,1.98,0.84,3.4h0v8.16l-10.06-11.55h-5.91
		c0.91,1.03,0.84,1.98,0.84,3.4h0v13.3c-0.01,0.99-0.11,1.76-0.84,2.58h6.58c-0.91-1.03-0.84-1.98-0.84-3.4h0v-8.55l10.42,11.95h4.7
		h0.84c-0.68-0.77-0.82-1.5-0.84-2.41V29.64z"/>
	<path class="st1" d="M332.6,29.64c0.02-0.91,0.15-1.64,0.84-2.41h-6.58c0.91,1.03,0.84,1.98,0.84,3.4h0v8.16l-10.06-11.55h-5.91
		c0.91,1.03,0.84,1.98,0.84,3.4h0v13.3c-0.01,0.99-0.11,1.76-0.84,2.58h6.58c-0.91-1.03-0.84-1.98-0.84-3.4h0v-8.55l10.42,11.95h4.7
		h0.84c-0.68-0.77-0.82-1.5-0.84-2.41V29.64z"/>
	<path class="st1" d="M-15.97,29.64c0.02-0.91,0.15-1.64,0.84-2.41h-6.58c0.91,1.03,0.84,1.98,0.84,3.4h0v8.16l-10.06-11.55h-5.91
		c0.91,1.03,0.84,1.98,0.84,3.4h0v13.3c-0.01,0.99-0.11,1.76-0.84,2.58h6.58c-0.91-1.03-0.84-1.98-0.84-3.4h0v-8.55l10.42,11.95h4.7
		h0.84c-0.68-0.77-0.82-1.5-0.84-2.41V29.64z"/>
	<path class="st1" d="M5.73,29.64c0.02-0.91,0.15-1.64,0.84-2.41h-6.58c0.91,1.03,0.84,1.98,0.84,3.4h0v8.16L-9.22,27.24h-5.91
		c0.91,1.03,0.84,1.98,0.84,3.4h0v13.3c-0.01,0.99-0.11,1.76-0.84,2.58h6.58c-0.91-1.03-0.84-1.98-0.84-3.4h0v-8.55L1.03,46.51h4.7
		h0.84c-0.68-0.77-0.82-1.5-0.84-2.41V29.64z"/>
	<path class="st1" d="M158.31,64.44c0.02-0.91,0.15-1.64,0.84-2.41h-6.58c0.91,1.03,0.84,1.98,0.84,3.4h0v8.16l-10.06-11.55h-5.91
		c0.91,1.03,0.84,1.98,0.84,3.4h0v13.3c-0.01,0.99-0.11,1.76-0.84,2.58h6.58c-0.91-1.03-0.84-1.98-0.84-3.4h0v-8.55l10.42,11.95h4.7
		h0.84c-0.68-0.77-0.82-1.5-0.84-2.41V64.44z"/>
	<path class="st1" d="M158.31,83.71c0.02-0.91,0.15-1.64,0.84-2.41h-6.58c0.91,1.03,0.84,1.98,0.84,3.4h0v8.16L143.36,81.3h-5.91
		c0.91,1.03,0.84,1.98,0.84,3.4h0v13.3c-0.01,0.99-0.11,1.76-0.84,2.58h6.58c-0.91-1.03-0.84-1.98-0.84-3.4h0v-8.55l10.42,11.95h4.7
		h0.84c-0.68-0.77-0.82-1.5-0.84-2.41V83.71z"/>
	<path class="st1" d="M158.31-28.41c0.02-0.91,0.15-1.64,0.84-2.41h-6.58c0.91,1.03,0.84,1.98,0.84,3.4h0v8.16l-10.06-11.55h-5.91
		c0.91,1.03,0.84,1.98,0.84,3.4h0v13.3c-0.01,0.99-0.11,1.76-0.84,2.58h6.58c-0.91-1.03-0.84-1.98-0.84-3.4h0v-8.55l10.42,11.95h4.7
		h0.84c-0.68-0.77-0.82-1.5-0.84-2.41V-28.41z"/>
	<path class="st1" d="M158.31-9.14c0.02-0.91,0.15-1.64,0.84-2.41h-6.58c0.91,1.03,0.84,1.98,0.84,3.4h0V0l-10.06-11.55h-5.91
		c0.91,1.03,0.84,1.98,0.84,3.4h0v13.3c-0.01,0.99-0.11,1.76-0.84,2.58h6.58c-0.91-1.03-0.84-1.98-0.84-3.4h0v-8.55l10.42,11.95h4.7
		h0.84c-0.68-0.77-0.82-1.5-0.84-2.41V-9.14z"/>
</g>
</svg>
